<?xml version="1.0" standalone="no"?>
<!DOCTYPE svg PUBLIC "-//W3C//DTD SVG 20010904//EN"
 "http://www.w3.org/TR/2001/REC-SVG-20010904/DTD/svg10.dtd">
<svg version="1.0" xmlns="http://www.w3.org/2000/svg"
 width="500.000000pt" height="500.000000pt" viewBox="0 0 500.000000 500.000000"
 preserveAspectRatio="xMidYMid meet">
<metadata>
Created by potrace 1.14, written by Peter Selinger 2001-2017
</metadata>
<g transform="translate(0.000000,500.000000) scale(0.100000,-0.100000)"
fill="#000000" stroke="none">
<path d="M2437 4595 c-1 -1 -51 -5 -112 -8 -258 -14 -566 -105 -815 -239 -73
-39 -240 -144 -250 -157 -3 -3 -32 -26 -65 -50 -74 -55 -277 -256 -334 -331
-220 -290 -351 -575 -420 -915 -55 -270 -45 -633 24 -899 102 -394 276 -699
559 -981 189 -187 384 -323 615 -426 161 -72 361 -133 501 -154 24 -4 47 -8
50 -10 26 -16 368 -23 518 -11 358 29 760 188 1072 424 68 52 260 236 321 307
86 102 210 289 273 413 112 222 197 518 214 752 30 397 -33 750 -197 1094
-159 336 -422 638 -735 845 -274 181 -616 304 -931 337 -57 5 -283 12 -288 9z
m154 -1257 c1 -62 3 -142 4 -178 2 -36 4 -173 5 -305 1 -132 6 -262 12 -290
13 -60 64 -140 121 -190 23 -21 58 -52 77 -69 19 -18 82 -74 140 -126 106 -94
376 -361 418 -412 24 -31 11 -38 -25 -13 -12 8 -33 16 -47 17 -14 1 -26 5 -26
9 0 3 -18 4 -39 2 -37 -4 -40 -2 -50 29 -7 18 -20 43 -30 55 -17 21 -87 63
-104 63 -12 0 -84 56 -129 101 -21 21 -38 35 -38 31 0 -3 -5 -1 -11 5 -6 6
-18 9 -26 6 -10 -4 -11 -8 -4 -13 6 -3 14 -26 17 -50 l6 -43 -39 31 c-22 17
-70 68 -108 114 -71 86 -168 156 -225 163 -25 3 -80 -22 -80 -36 0 -4 -8 -10
-18 -13 -18 -6 -100 -86 -347 -341 -70 -71 -226 -231 -349 -355 -122 -124
-240 -249 -261 -279 -21 -30 -41 -49 -43 -43 -6 20 26 67 99 142 70 73 116
148 105 175 -2 7 -2 16 2 19 10 11 11 36 1 36 -6 0 -7 5 -4 10 6 10 -3 13 -37
13 -35 0 -74 -25 -105 -66 -46 -60 -103 -121 -108 -116 -9 10 264 306 440 477
55 53 161 158 235 232 75 74 159 153 187 175 60 47 124 137 160 226 22 53 27
80 27 159 1 52 -2 118 -6 145 -8 54 -11 227 -8 428 2 122 3 127 24 127 21 -1
52 -19 54 -32 1 -5 2 -13 2 -19 0 -6 5 -7 13 -2 6 4 14 8 17 8 20 2 62 43 72
71 6 19 16 34 20 34 4 0 8 -51 9 -112z m-2013 -577 c15 -8 16 -20 11 -83 -8
-110 -3 -372 10 -468 15 -108 52 -254 97 -383 l34 -101 -32 31 c-18 17 -51 40
-73 51 -54 27 -75 55 -97 127 -51 162 -76 342 -76 545 1 229 4 253 36 273 30
18 65 22 90 8z m3880 -249 c44 -115 56 -195 48 -321 -6 -97 -11 -131 -32 -201
-7 -24 -31 -54 -43 -55 -3 -1 -26 -11 -49 -24 -24 -12 -46 -21 -48 -19 -2 2 8
51 22 108 14 58 28 119 30 135 3 17 7 36 10 44 8 24 18 190 18 313 1 64 4 114
7 110 4 -4 20 -44 37 -90z m-1265 -805 c2 -12 8 -30 12 -39 5 -13 2 -15 -15
-11 -30 8 -51 42 -39 64 12 23 35 15 42 -14z"/>
</g>
</svg>
